<?xml version="1.0" encoding="utf-8"?>
<!-- Generator: Adobe Illustrator 22.0.0, SVG Export Plug-In . SVG Version: 6.00 Build 0)  -->
<svg version="1.1" id="Layer_1" xmlns="http://www.w3.org/2000/svg" xmlns:xlink="http://www.w3.org/1999/xlink" x="0px" y="0px"
	 viewBox="0 0 615.8 250" style="enable-background:new 0 0 615.8 250;" xml:space="preserve">
<style type="text/css">
	.st0{fill:#74C045;}
	.st1{fill:#8DC73F;}
	.st2{fill:#D3E035;}
	.st3{fill:#B1D235;}
	.st4{fill:#7BC341;}
	.st5{fill:#48B54B;}
	.st6{fill:#FFFFFF;}
	.st7{fill:#F2E717;}
	.st8{fill:#D4DE28;}
	.st9{fill:#99CA3F;}
</style>
<g>
	<g>
		<polygon class="st0" points="84.8,3.6 13.7,71.1 121.5,12.1 		"/>
	</g>
	<g>
		<polygon class="st1" points="10.2,109.6 13.7,71.1 54.2,86.5 		"/>
	</g>
	<g>
		<polygon class="st2" points="10.2,109.6 3.6,181.2 51,154.2 		"/>
	</g>
	<g>
		<g>
			<polygon class="st3" points="121.5,231 121.5,114 51,154.2 			"/>
		</g>
		<g>
			<polygon class="st4" points="54.2,86.5 121.5,114 121.5,51 			"/>
		</g>
		<g>
			<polygon class="st5" points="54.2,86.5 13.7,71.1 121.5,12.1 121.5,51 			"/>
		</g>
		<g>
			<g>
				<path class="st6" d="M219.2,250c-0.3,0-0.5,0-0.8-0.1L149,234.5c-1.6-0.4-2.8-1.8-2.8-3.5V12.1c0-1.7,1.1-3.1,2.8-3.5l36.7-8.5
					c1.2-0.3,2.4,0.1,3.3,0.9L260,68.5c0.6,0.6,1,1.4,1.1,2.3l10.1,110.1c0.1,0.9-0.2,1.8-0.7,2.5l-48.5,65.2
					C221.4,249.5,220.3,250,219.2,250z M153.3,228.1l64.3,14.3l46.3-62.2l-9.9-107.4L185.4,7.5l-32,7.4V228.1z"/>
			</g>
			<g>
				<path class="st6" d="M149.8,234.6c-1.1,0-2.3-0.5-2.9-1.5c-1-1.4-0.9-3.3,0.3-4.5l67.4-73.5L148,117.1c-1.2-0.7-1.9-2-1.8-3.4
					c0.1-1.4,1-2.6,2.2-3.1L208.5,86l-60.5-31.8c-1.8-0.9-2.4-3.1-1.5-4.8c0.9-1.8,3.1-2.4,4.8-1.5l65.8,34.6l29.2-11.9L148,15.2
					c-1.7-1-2.3-3.2-1.4-4.9c1-1.7,3.2-2.3,4.9-1.4l104.9,59c1.2,0.7,1.9,2,1.8,3.4c-0.1,1.4-0.9,2.6-2.2,3.1l-30.4,12.5l37.2,19.6
					c1,0.5,1.7,1.5,1.9,2.6c0.2,1.1-0.1,2.2-0.9,3l-37.8,41.2l43.5,24.8c1.2,0.7,1.9,2,1.8,3.3c-0.1,1.4-0.9,2.6-2.2,3.1
					l-117.9,49.8C150.7,234.5,150.2,234.6,149.8,234.6z M220.9,158.7l-57.4,62.6l96-40.5L220.9,158.7z M157.9,114.5l61.6,35.1
					l35.8-39l-38.4-20.2L157.9,114.5z"/>
			</g>
		</g>
		<g>
			<polygon class="st7" points="121.5,231 3.6,181.2 52.1,246.4 			"/>
		</g>
		<g>
			<polygon class="st8" points="121.5,231 3.6,181.2 51,154.2 			"/>
		</g>
		<g>
			<polygon class="st9" points="54.2,86.5 121.5,114 51,154.2 10.2,109.6 			"/>
		</g>
		<g>
			<path class="st6" d="M52.1,250c-1.1,0-2.2-0.5-2.9-1.4L0.7,183.4c-0.5-0.7-0.8-1.6-0.7-2.5L10.2,70.7c0.1-0.9,0.5-1.7,1.1-2.3
				L82.3,1c0.9-0.8,2.1-1.2,3.3-0.9l36.7,8.5c1.6,0.4,2.8,1.8,2.8,3.5V231c0,1.7-1.2,3.1-2.8,3.5l-69.4,15.4
				C52.6,249.9,52.3,250,52.1,250z M7.3,180.2l46.3,62.2l64.3-14.3V15l-32-7.4L17.2,72.8L7.3,180.2z"/>
		</g>
		<g>
			<path class="st6" d="M121.5,234.6c-0.5,0-0.9-0.1-1.4-0.3L2.2,184.5c-1.3-0.5-2.1-1.7-2.2-3.1c-0.1-1.4,0.6-2.7,1.8-3.3
				l43.5-24.8L7.5,112c-0.8-0.8-1.1-2-0.9-3c0.2-1.1,0.9-2,1.9-2.6l37.2-19.6L15.3,74.4c-1.3-0.5-2.1-1.7-2.2-3.1
				c-0.1-1.4,0.6-2.7,1.8-3.4L119.7,9c1.7-1,3.9-0.4,4.9,1.4c1,1.7,0.4,3.9-1.4,4.9L24.9,70.6L54,82.5l65.8-34.6
				c1.8-0.9,3.9-0.3,4.9,1.5c0.9,1.8,0.3,3.9-1.5,4.8L62.7,86l60.2,24.6c1.3,0.5,2.1,1.7,2.2,3.1c0.1,1.4-0.6,2.7-1.8,3.4L56.7,155
				l67.4,73.5c1.1,1.2,1.3,3.1,0.3,4.5C123.7,234,122.6,234.6,121.5,234.6z M11.7,180.7l96,40.5l-57.4-62.6L11.7,180.7z M16,110.6
				l35.8,39l61.5-35.1L54.4,90.4L16,110.6z"/>
		</g>
		<g>
			<g>
				<g>
					<path class="st6" d="M340,187.8c-8.5-4.3-9.5-11.2-9.5-15.9c0-10.6,8.4-16.5,18.2-16.5c11.2,0,17.1,6.5,18.4,15.1
						c0.2,1.1-0.1,2.6-1.8,3.1l-3.2,0.8c-1.7,0.5-3.3-0.1-3.8-2c-1.4-5.8-4.1-8-9.6-8c-7,0-9.3,4.2-9.3,7.7c0,3,0.9,5.8,3.9,7.4
						l15.8,8.3c5.6,2.9,8.8,8.9,8.8,15c0,10.4-7,18.3-19.3,18.3c-7.6,0-18.9-4.3-18.9-18.9c0-2.7,2.7-2.7,2.7-2.7h3.7
						c0,0,2.6,0,2.6,2.7c0,8.3,5.4,10.1,9.9,10.1c7.5,0,10.3-5.3,10.3-9.6c0-3-1.3-5.9-5.8-8.2L340,187.8z"/>
				</g>
				<g>
					<path class="st6" d="M378.9,176.3c0-12.2,6.5-21,19.3-21c12,0,17.2,7.1,18.5,15.7c0.2,1.1-0.1,2.6-1.8,3.1l-3.2,0.8
						c-1.7,0.5-3.5-0.5-3.8-2c-0.6-5.4-3.8-8.8-9.7-8.8c-7.1,0-10.3,3.7-10.3,12.3v23.9c0,8.6,3.2,12.2,10.3,12.2
						c6.3,0,10-3.7,10-12.2c0-2.7,2.6-2.7,2.6-2.7h3.7c0,0,2.7,0,2.7,2.7c0,11.7-5.2,20.9-18.9,20.9c-12.7,0-19.3-8.8-19.3-20.9
						V176.3z"/>
				</g>
				<g>
					<path class="st6" d="M435.9,156c0,0,2.8,0,2.8,2.7v24.1h20.4v-24.1c0-2.7,2.6-2.7,2.6-2.7h3.6c0,0,2.8,0,2.8,2.7v59.2
						c0,2.7-2.7,2.7-2.7,2.7h-3.6c0,0-2.7,0-2.7-2.7v-26.4h-20.4v26.4c0,2.7-2.7,2.7-2.7,2.7h-3.6c0,0-2.7,0-2.7-2.7v-59.2
						c0-2.7,2.6-2.7,2.6-2.7H435.9z"/>
				</g>
				<g>
					<path class="st6" d="M482,176.3c0-11.7,5.4-21,19.2-21c13.7,0,19.1,9.3,19.1,21v23.9c0,11.7-5.3,20.9-19.1,20.9
						c-13.7,0-19.2-9.2-19.2-20.9V176.3z M511.3,176.3c0-8.5-3.9-12.3-10.1-12.3c-6.3,0-10.2,3.8-10.2,12.3v23.9
						c0,8.5,4,12.2,10.2,12.2c6.3,0,10.1-3.7,10.1-12.2V176.3z"/>
				</g>
				<g>
					<path class="st6" d="M533.4,176.3c0-11.7,5.4-21,19.2-21c13.7,0,19.1,9.3,19.1,21v23.9c0,11.7-5.3,20.9-19.1,20.9
						c-13.7,0-19.2-9.2-19.2-20.9V176.3z M562.7,176.3c0-8.5-3.9-12.3-10.1-12.3c-6.3,0-10.2,3.8-10.2,12.3v23.9
						c0,8.5,4,12.2,10.2,12.2c6.3,0,10.1-3.7,10.1-12.2V176.3z"/>
				</g>
				<g>
					<path class="st6" d="M592.1,156c0,0,2.7,0,2.7,2.7v53.1h18.3c2.8,0,2.8,2.6,2.8,2.6v3.5c0,0,0,2.7-2.8,2.7h-27.3v-61.8
						c0-2.7,2.6-2.7,2.6-2.7H592.1z"/>
				</g>
			</g>
		</g>
		<g>
			<path class="st6" d="M335.2,68.7c0,0,1.9,0,2.9,2.1l10.6,24.9l10.5-24.9c1-2.1,2.9-2.1,2.9-2.1h5.4c0,0,2.9,0,2.9,2.8v61
				c0,0,0,2.8-2.9,2.8h-3.5c0,0-2.9,0-2.9-2.8l0.9-46.9l-8.5,21.3c-0.8,1.8-1.6,2-2.7,2h-4.3c-1.1,0-2.1-0.2-2.9-2L335.1,85
				l0.9,47.4c0,0,0,2.8-2.8,2.8h-3.7c0,0-2.8,0-2.8-2.8v-61c0,0,0-2.8,2.8-2.8H335.2z"/>
			<path class="st6" d="M412.6,68.7c0,0,2.2,0,2.9,2.3l17.1,61.2c0.9,3-2.4,3-2.4,3h-4.4c-1,0-2.2-0.8-2.7-2.3l-4.5-18.3h-20
				l-4.8,18.3c-0.5,1.5-1.6,2.3-2.6,2.3H387c0,0-3.1,0-2.3-3L402,71c0.7-2.3,2.8-2.3,2.8-2.3H412.6z M416.2,105.6l-7.4-27.8h-0.2
				l-7.5,27.8H416.2z"/>
			<path class="st6" d="M450.2,68.7c0,0,2.8,0,2.8,2.8v61c0,2.8-2.8,2.8-2.8,2.8h-3.7c0,0-2.8,0-2.8-2.8v-61c0-2.8,2.7-2.8,2.7-2.8
				H450.2z"/>
			<path class="st6" d="M477.1,68.7c0,0,1.9,0,2.9,2.1l20,47.9l-0.6-47.2c0,0,0-2.8,2.8-2.8h3.7c0,0,2.8,0,2.8,2.8v61
				c0,0,0,2.8-2.8,2.8h-5.7c0,0-2.1,0-2.9-2l-20-48l0.5,47.2c0,0,0,2.8-2.8,2.8h-3.7c0,0-2.8,0-2.8-2.8v-61c0,0,0-2.8,2.8-2.8H477.1
				z"/>
		</g>
	</g>
</g>
</svg>
